HIERARCHY
ROOT root
{
	OFFSET	0	13.1	24.9
	CHANNELS 6  Xposition Yposition Zposition Xrotation Yrotation Zrotation
	JOINT spine_1
	{
		OFFSET	0	9.99999	0
		CHANNELS 3  Xrotation Yrotation Zrotation
		JOINT spine_2
		{
			OFFSET	0	112	-10
			CHANNELS 3  Xrotation Yrotation Zrotation
			JOINT spine_3
			{
				OFFSET	0	206.5	19.3
				CHANNELS 3  Xrotation Yrotation Zrotation
				JOINT spine_4
				{
					OFFSET	0	110.4	14.6
					CHANNELS 3  Xrotation Yrotation Zrotation
					JOINT neck_1
					{
						OFFSET	0	71.8	-50.3
						CHANNELS 3  Xrotation Yrotation Zrotation
						JOINT neck_2
						{
							OFFSET	0	86.2	-25.8
							CHANNELS 3  Xrotation Yrotation Zrotation
							JOINT head_ee
							{
								OFFSET	0	179.8	-8.7
								CHANNELS 3  Xrotation Yrotation Zrotation
								End Site
								{
									OFFSET	1	0	0
								}
							}
						}
					}
					JOINT left_clavicle
					{
						OFFSET	-43.2	22.4	-70.8
						CHANNELS 3  Xrotation Yrotation Zrotation
						JOINT left_shoulder
						{
							OFFSET	-93.9	-5.79999	48.7
							CHANNELS 3  Xrotation Yrotation Zrotation
							JOINT left_elbow
							{
								OFFSET	-291.4	-30.8	15.2
								CHANNELS 3  Xrotation Yrotation Zrotation
								JOINT left_lowarm_twist
								{
									OFFSET	-110.7	-3.89999	13.6
									CHANNELS 3  Xrotation Yrotation Zrotation
									JOINT left_hand
									{
										OFFSET	-110.7	-3.89999	13.6
										CHANNELS 3  Xrotation Yrotation Zrotation
										JOINT left_ee
										{
											OFFSET	-80.8	-5.10001	12.1
											CHANNELS 3  Xrotation Yrotation Zrotation
											End Site
											{
												OFFSET	1	0	0
											}
										}
									}
								}
							}
						}
					}
					JOINT right_clavicle
					{
						OFFSET	43.2	22.4	-70.8
						CHANNELS 3  Xrotation Yrotation Zrotation
						JOINT right_shoulder
						{
							OFFSET	93.9	-5.79999	48.7
							CHANNELS 3  Xrotation Yrotation Zrotation
							JOINT right_elbow
							{
								OFFSET	291.4	-30.8	15.2
								CHANNELS 3  Xrotation Yrotation Zrotation
								JOINT right_lowarm_twist
								{
									OFFSET	110.7	-3.89999	13.6
									CHANNELS 3  Xrotation Yrotation Zrotation
									JOINT right_hand
									{
										OFFSET	110.7	-3.89999	13.6
										CHANNELS 3  Xrotation Yrotation Zrotation
										JOINT right_ee
										{
											OFFSET	80.8	-5.10001	12.1
											CHANNELS 3  Xrotation Yrotation Zrotation
											End Site
											{
												OFFSET	1	0	0
											}
										}
									}
								}
							}
						}
					}
				}
			}
		}
	}
	JOINT left_hip
	{
		OFFSET	-82.8	-127.5	0.300001
		CHANNELS 3  Xrotation Yrotation Zrotation
		JOINT left_knee
		{
			OFFSET	-28.2	-396.7	2.2
			CHANNELS 3  Xrotation Yrotation Zrotation
			JOINT left_ankle
			{
				OFFSET	-11.7	-411.3	35.4
				CHANNELS 3  Xrotation Yrotation Zrotation
				JOINT left_toes
				{
					OFFSET	0	-60	-88.6
					CHANNELS 3  Xrotation Yrotation Zrotation
					JOINT left_foot_ee
					{
						OFFSET	-22.5	-16.5	-42.2
						CHANNELS 3  Xrotation Yrotation Zrotation
						End Site
						{
							OFFSET	1	0	0
						}
					}
				}
			}
		}
	}
	JOINT right_hip
	{
		OFFSET	82.8	-127.5	0.300001
		CHANNELS 3  Xrotation Yrotation Zrotation
		JOINT right_knee
		{
			OFFSET	28.2	-396.7	2.2
			CHANNELS 3  Xrotation Yrotation Zrotation
			JOINT right_ankle
			{
				OFFSET	11.7	-411.3	35.4
				CHANNELS 3  Xrotation Yrotation Zrotation
				JOINT right_toes
				{
					OFFSET	0	-60	-88.6
					CHANNELS 3  Xrotation Yrotation Zrotation
					JOINT right_foot_ee
					{
						OFFSET	22.5	-16.5	-42.2
						CHANNELS 3  Xrotation Yrotation Zrotation
						End Site
						{
							OFFSET	1	0	0
						}
					}
				}
			}
		}
	}
}
MOTION
Frames: 13
Frame Time: 0.02
1193.12343535 721.546 -1750.74732399 9.19900345172 23.500047598 -2.63500658727 -3.15553 -0.132316 -0.422074 -3.15544 -0.105191 -0.429638 -3.15449 0.0118076 -0.44217 -3.15476 -0.0581724 -0.438486 -2.66658 15.6887 -1.50618 -2.20276 29.6794 0.550517 -0.0 0.0 -0.0 9.59767 14.2596 17.6258 -13.6875 5.82427 57.211 0.789478 -21.3596 0.148887 -4.15889 -0.164971 0.505246 0.670895 5.80222 6.83031 -0.0 0.0 -0.0 11.8741 27.1005 -22.9658 -2.95098 28.5652 -51.1228 0.966233 25.5774 -0.219327 58.2511 1.62072 6.94427 -2.29233 -21.2919 4.91309 0.0 0.0 0.0 13.9539 6.82901 -7.86359 -59.7424 -2.17223 8.49701 19.6767 18.2519 -2.74168 39.1497 -0.0 -0.0 -0.0 0.0 -0.0 5.6455 -11.1547 -5.54293 -17.6196 -0.316378 -2.67474 8.32311 28.5393 1.48021 25.7119 -0.0 -0.0 0.0 0.0 0.0 
1170.02158766 723.803 -1764.11559205 9.83128928693 26.4862823715 -2.80901404229 -3.08928 -0.407869 -0.457655 -3.08924 -0.377921 -0.482681 -3.08583 -0.237978 -0.564951 -3.08613 -0.324213 -0.520279 -4.50528 15.5394 0.491236 -4.28504 28.1785 3.06931 -0.0 0.0 -0.0 9.53723 15.2011 17.4008 -17.3365 6.76234 57.6219 0.706278 -19.2834 0.119988 -3.23666 -0.125226 0.394248 0.618305 6.60202 6.80096 -0.0 0.0 -0.0 12.0718 26.0289 -23.5416 -2.66533 28.4883 -50.3465 1.09143 28.3977 -0.27616 57.7528 1.578 6.8968 -1.86801 -18.3556 3.83217 0.0 0.0 0.0 16.8291 8.89039 -10.3571 -58.162 -2.00482 8.31985 21.9977 19.482 -3.04768 39.4884 -0.0 -0.0 -0.0 0.0 -0.0 3.95941 -7.84369 -5.92583 -18.2946 -0.312037 -2.77821 10.3082 26.2242 1.76679 26.2359 -0.0 -0.0 0.0 0.0 0.0 
1152.21904757 722.385 -1766.50671984 9.80942967845 27.4564674319 -3.11822486612 -2.69025 -0.231191 -0.600645 -2.69007 -0.192503 -0.614138 -2.6877 -0.0290137 -0.642946 -2.68825 -0.130189 -0.630296 -5.29815 14.5044 -0.0984519 -5.15859 26.8247 2.47914 -0.0 0.0 -0.0 9.67049 15.3759 17.6079 -19.0881 8.96102 58.546 0.560991 -15.5307 0.0765011 -2.64049 -0.100487 0.322164 0.556765 7.30985 6.67725 -0.0 0.0 -0.0 11.8746 27.1485 -22.9612 -1.5742 28.384 -49.6223 1.15441 29.7626 -0.306773 56.355 1.46037 6.76168 -1.89906 -18.1641 4.11214 0.0 0.0 0.0 18.9968 9.98555 -11.192 -58.0385 -1.99195 8.3058 20.5458 19.9187 -2.86969 39.4442 -0.0 -0.0 -0.0 0.0 -0.0 2.63694 -11.1561 -5.19077 -17.6014 -0.316479 -2.67194 12.0887 28.705 2.1193 26.8664 -0.0 -0.0 0.0 0.0 0.0 
1123.35049793 727.122 -1763.92233575 9.1021919288 29.350809424 -3.155161666 -2.55041 -0.293181 -0.875811 -2.55002 -0.236859 -0.892691 -2.54571 -0.00293823 -0.923572 -2.54687 -0.148756 -0.911519 -6.1485 13.156 -0.741469 -6.08135 24.9034 1.76916 -0.0 0.0 -0.0 9.72698 16.0096 17.6187 -21.508 10.6534 59.8988 0.509775 -14.1726 0.0633727 -1.10641 -0.0402952 0.135545 0.746922 7.82415 8.12439 -0.0 0.0 -0.0 11.9658 26.2937 -23.2696 -1.00916 27.9968 -48.9498 1.24164 31.5931 -0.35128 54.2063 1.28612 6.54856 -1.69128 -15.6879 4.02346 0.0 0.0 0.0 20.0027 11.7927 -11.8037 -56.8927 -1.87397 8.17429 21.9132 20.0689 -3.04418 40.1303 -0.0 -0.0 -0.0 0.0 -0.0 2.04332 -11.2326 -4.64337 -17.9622 -0.314327 -2.72727 13.1381 28.2454 2.27855 27.3405 -0.0 -0.0 0.0 0.0 0.0 
1095.52804857 724.14 -1769.60978681 8.53982409069 30.7583481169 -3.0756876054 -2.15142 -0.2549 -1.09295 -2.15078 -0.184841 -1.10695 -2.1464 0.0938936 -1.11834 -2.14814 -0.0838943 -1.11913 -6.77835 12.2594 -1.06972 -6.75342 23.5395 1.3946 -0.0 0.0 -0.0 9.37801 16.2541 16.9916 -23.6424 11.9128 60.7681 0.467347 -13.0351 0.0533928 -0.0267986 -0.000945058 0.00329201 0.875015 8.20575 9.11181 -0.0 0.0 -0.0 11.9972 26.4682 -23.3208 -0.212082 27.8118 -47.8452 1.32415 33.2611 -0.395533 52.6703 1.16654 6.39231 -1.53147 -13.7752 3.92445 0.0 0.0 0.0 23.1136 12.1224 -13.8028 -54.5005 -1.6363 7.89234 22.9491 20.235 -3.17537 40.3246 -0.0 -0.0 -0.0 0.0 -0.0 1.00531 -11.3575 -3.99355 -17.9963 -0.314106 -2.73249 14.2422 27.7364 2.44134 27.6656 -0.0 -0.0 0.0 0.0 0.0 
1073.58702424 722.197 -1773.64781808 8.55543940987 32.2186407999 -2.87718375674 -2.10304 -0.180852 -1.14587 -2.10231 -0.107575 -1.15506 -2.09934 0.179712 -1.14605 -2.10117 -0.00352783 -1.16005 -7.48531 11.72 -0.776826 -7.50516 22.3908 1.71652 -0.0 0.0 -0.0 9.13234 16.7385 16.5156 -25.0566 12.8016 61.3931 0.471266 -13.1406 0.0542802 0.742414 0.0255663 -0.0913709 0.9788 8.27982 9.8217 -0.0 0.0 -0.0 12.325 26.0085 -24.1233 0.173563 27.6722 -47.0541 1.38244 34.4023 -0.427988 51.6211 1.0873 6.28379 -1.38689 -12.1577 3.75912 0.0 0.0 0.0 26.279 11.7166 -15.7445 -51.9931 -1.40015 7.58661 23.6975 20.2106 -3.26728 40.2506 -0.0 -0.0 -0.0 0.0 -0.0 0.733829 -11.4235 -3.84057 -18.0322 -0.313869 -2.73799 15.2276 27.4382 2.58801 27.9438 -0.0 -0.0 0.0 0.0 0.0 
1054.16335668 721.886 -1780.70150926 8.69056943848 33.2047846142 -3.25313386563 -1.94514 -0.112443 -1.1789 -1.94437 -0.0372045 -1.18366 -1.94285 0.251812 -1.15717 -1.94471 0.0659117 -1.18241 -7.61726 11.1386 -1.3236 -7.63638 21.7036 1.07117 -0.0 0.0 -0.0 8.45066 18.0051 15.2398 -26.5085 13.4598 62.5476 0.552696 -15.3119 0.0742954 1.43827 0.0484511 -0.177301 1.22299 8.03742 11.3404 -0.0 0.0 -0.0 12.5421 25.8734 -24.6368 0.777241 27.1298 -46.3744 1.43565 35.4175 -0.458438 51.3595 1.06784 6.2565 -0.700654 -8.38528 1.04364 0.0 0.0 0.0 27.8916 11.7595 -16.3108 -44.5866 -0.784042 6.62808 26.1607 22.1594 -3.59621 40.1202 -0.0 -0.0 -0.0 0.0 -0.0 -0.300039 -10.983 -3.15434 -17.914 -0.314635 -2.71988 17.2046 28.1056 2.91798 28.3059 -0.0 -0.0 0.0 0.0 0.0 
1032.78297792 727.964 -1812.75225361 8.52717125091 32.4407902911 -2.32005050721 -1.9988 -0.14883 -1.31845 -1.99784 -0.06464 -1.32525 -1.99537 0.260834 -1.30094 -1.99772 0.0521204 -1.3258 -7.65757 11.878 4.28528 -7.64501 19.1167 6.78581 -0.0 0.0 -0.0 8.16404 20.0478 14.5488 -27.7386 12.8802 62.366 0.525548 -14.5927 0.0672906 3.41127 0.107638 -0.422358 1.499 8.94923 13.5095 -0.0 0.0 -0.0 13.0357 22.5296 -26.1228 -0.0518644 26.8776 -45.1452 1.6652 39.5158 -0.598164 47.9213 0.824046 5.89002 -0.177973 -3.83025 -0.431144 0.0 0.0 0.0 23.469 8.2115 -12.9492 -26.3927 0.165244 4.01118 21.596 25.8887 -3.09286 40.0415 -0.0 -0.0 -0.0 0.0 -0.0 -3.31709 -9.60051 -4.36532 -15.9303 -0.321899 -2.41562 17.0188 26.8603 2.84609 27.3381 -0.0 -0.0 0.0 0.0 0.0 
1029.93641841 727.964 -1809.86672685 8.5734562451 32.9206690799 -2.40576948035 -1.9988 -0.14883 -1.31845 -1.99784 -0.06464 -1.32525 -1.99537 0.260834 -1.30094 -1.99772 0.0521204 -1.3258 -7.65757 11.878 4.28528 -7.64501 19.1167 6.78581 -0.0 0.0 -0.0 8.16404 20.0478 14.5488 -27.7386 12.8802 62.366 0.525548 -14.5927 0.0672906 3.41127 0.107638 -0.422358 1.499 8.94923 13.5095 -0.0 0.0 -0.0 13.0357 22.5296 -26.1228 -0.0518644 26.8776 -45.1452 1.6652 39.5158 -0.598164 47.9213 0.824046 5.89002 -0.177973 -3.83025 -0.431144 0.0 0.0 0.0 23.469 8.2115 -12.9492 -26.3927 0.165244 4.01118 21.596 25.8887 -3.09286 40.0415 -0.0 -0.0 -0.0 0.0 -0.0 -3.31709 -9.60051 -4.36532 -15.9303 -0.321899 -2.41562 17.0188 26.8603 2.84609 27.3381 -0.0 -0.0 0.0 0.0 0.0 
1019.81471978 722.266 -1830.12145586 9.06122307424 31.8325026218 -1.90566772394 -2.08456 -0.147873 -1.64477 -2.08306 -0.0429271 -1.65085 -2.08032 0.363805 -1.61084 -2.08393 0.104873 -1.64807 -7.49922 12.4866 6.80623 -7.40727 18.4269 9.37206 -0.0 0.0 -0.0 7.47202 21.1582 13.3673 -29.2836 14.0194 63.4429 0.634298 -17.4435 0.0973084 4.28477 0.131138 -0.531462 1.84486 9.30891 15.9509 -0.0 0.0 -0.0 13.1602 23.1968 -26.3497 1.10196 26.5091 -46.3354 1.72311 40.4798 -0.635385 45.7057 0.678812 5.64647 0.411647 1.62088 -2.07539 0.0 0.0 0.0 20.7879 6.48348 -11.3205 -11.5198 0.300301 1.73942 11.7582 27.6255 -1.76569 39.3692 -0.0 -0.0 -0.0 0.0 -0.0 -5.2608 -7.22175 -5.32661 -15.5732 -0.322088 -2.36083 16.6887 27.439 2.81516 26.7727 -0.0 -0.0 0.0 0.0 0.0 
997.344283577 716.136 -1851.52272824 9.11320951415 31.5732763707 -1.50438250233 -1.92506 -0.116395 -2.03431 -1.92276 0.0132622 -2.03759 -1.92113 0.507863 -1.97335 -1.92652 0.189903 -2.02877 -5.78869 14.6493 8.65352 -5.56402 20.7041 11.3888 -0.0 0.0 -0.0 6.6176 22.0125 12.018 -30.1094 14.7911 64.2655 0.660654 -18.1217 0.105358 5.75216 0.16686 -0.715501 2.1968 10.085 18.6018 -0.0 0.0 -0.0 13.3222 22.4332 -26.7993 0.597361 25.443 -46.5377 1.81958 42.0264 -0.699001 43.7001 0.555576 5.42136 0.861993 5.27065 -3.57967 0.0 0.0 0.0 20.1038 5.19506 -10.8362 -2.27093 0.0868196 0.337675 5.97313 29.517 -0.923722 39.5837 -0.0 -0.0 -0.0 0.0 -0.0 -9.02579 -5.18363 -5.73438 -12.276 -0.307701 -1.85521 18.0266 26.9559 3.00186 26.1321 -0.0 -0.0 0.0 0.0 0.0 
993.137068505 716.136 -1847.28599891 9.17691901143 32.2092976757 -1.62497191464 -1.92506 -0.116395 -2.03431 -1.92276 0.0132622 -2.03759 -1.92113 0.507863 -1.97335 -1.92652 0.189903 -2.02877 -5.78869 14.6493 8.65352 -5.56402 20.7041 11.3888 -0.0 0.0 -0.0 6.6176 22.0125 12.018 -30.1094 14.7911 64.2655 0.660654 -18.1217 0.105358 5.75216 0.16686 -0.715501 2.1968 10.085 18.6018 -0.0 0.0 -0.0 13.3222 22.4332 -26.7993 0.597361 25.443 -46.5377 1.81958 42.0264 -0.699001 43.7001 0.555576 5.42136 0.861993 5.27065 -3.57967 0.0 0.0 0.0 20.1038 5.19506 -10.8362 -2.27093 0.0868196 0.337675 5.97313 29.517 -0.923722 39.5837 -0.0 -0.0 -0.0 0.0 -0.0 -9.02579 -5.18363 -5.73438 -12.276 -0.307701 -1.85521 18.0266 26.9559 3.00186 26.1321 -0.0 -0.0 0.0 0.0 0.0 
988.8682017 716.136 -1842.88809306 9.24444492746 32.8620508036 -1.75052362393 -1.92506 -0.116395 -2.03431 -1.92276 0.0132622 -2.03759 -1.92113 0.507863 -1.97335 -1.92652 0.189903 -2.02877 -5.78869 14.6493 8.65352 -5.56402 20.7041 11.3888 -0.0 0.0 -0.0 6.6176 22.0125 12.018 -30.1094 14.7911 64.2655 0.660654 -18.1217 0.105358 5.75216 0.16686 -0.715501 2.1968 10.085 18.6018 -0.0 0.0 -0.0 13.3222 22.4332 -26.7993 0.597361 25.443 -46.5377 1.81958 42.0264 -0.699001 43.7001 0.555576 5.42136 0.861993 5.27065 -3.57967 0.0 0.0 0.0 20.1038 5.19506 -10.8362 -2.27093 0.0868196 0.337675 5.97313 29.517 -0.923722 39.5837 -0.0 -0.0 -0.0 0.0 -0.0 -9.02579 -5.18363 -5.73438 -12.276 -0.307701 -1.85521 18.0266 26.9559 3.00186 26.1321 -0.0 -0.0 0.0 0.0 0.0 
